<?xml version="1.0" encoding="UTF-8" standalone="no"?>
<!-- Created with Inkscape (http://www.inkscape.org/) -->

<svg
   xmlns:dc="http://purl.org/dc/elements/1.1/"
   xmlns:cc="http://creativecommons.org/ns#"
   xmlns:rdf="http://www.w3.org/1999/02/22-rdf-syntax-ns#"
   xmlns:svg="http://www.w3.org/2000/svg"
   xmlns="http://www.w3.org/2000/svg"
   xmlns:sodipodi="http://sodipodi.sourceforge.net/DTD/sodipodi-0.dtd"
   xmlns:inkscape="http://www.inkscape.org/namespaces/inkscape"
   width="48"
   height="48"
   id="svg2"
   version="1.1"
   inkscape:version="0.48.4 r9939"
   sodipodi:docname="rubbish_raw.svg">
  <defs
     id="defs4" />
  <sodipodi:namedview
     id="base"
     pagecolor="#ffffff"
     bordercolor="#666666"
     borderopacity="1.0"
     inkscape:pageopacity="0.0"
     inkscape:pageshadow="2"
     inkscape:zoom="5.6568543"
     inkscape:cx="9.3893738"
     inkscape:cy="22.180341"
     inkscape:document-units="px"
     inkscape:current-layer="layer1"
     showgrid="false"
     showguides="true"
     inkscape:guide-bbox="true"
     inkscape:window-width="1317"
     inkscape:window-height="768"
     inkscape:window-x="49"
     inkscape:window-y="0"
     inkscape:window-maximized="1" />
  <metadata
     id="metadata7">
    <rdf:RDF>
      <cc:Work
         rdf:about="">
        <dc:format>image/svg+xml</dc:format>
        <dc:type
           rdf:resource="http://purl.org/dc/dcmitype/StillImage" />
        <dc:title></dc:title>
      </cc:Work>
    </rdf:RDF>
  </metadata>
  <g
     inkscape:label="Layer 1"
     inkscape:groupmode="layer"
     id="layer1"
     transform="translate(0,-1004.3622)">
    <g
       id="g5073"
       transform="matrix(0.90135368,0.68913542,-0.67827824,0.91578162,711.89977,58.613165)"
       style="fill:#ff5555;fill-opacity:1">
      <rect
         y="1059.4332"
         x="-26.769043"
         height="30.304577"
         width="10.101525"
         id="rect5034"
         style="fill:#ff5555;fill-opacity:1;stroke:none" />
      <rect
         style="fill:#ff5555;fill-opacity:1;stroke:none"
         id="rect5036"
         width="10.101525"
         height="4.7982249"
         x="-26.769043"
         y="1052.8673" />
      <path
         sodipodi:nodetypes="cccc"
         inkscape:connector-curvature="0"
         id="rect5038"
         d="m -26.769043,1091.5056 10.101525,0 -5.050763,9.9752 z"
         style="fill:#ff5555;fill-opacity:1;stroke:none" />
    </g>
    <path
       style="fill:#ececec;fill-opacity:1;stroke:none"
       d="m 5.46875,1004.3622 c 1.3541667,16 2.7083333,32 4.0625,48 9.489583,0 18.979167,0 28.46875,0 1.354167,-16 2.708333,-32 4.0625,-48 -12.197917,0 -24.395833,0 -36.59375,0 z m 4.25,5 c 1.166667,0 2.333333,0 3.5,0 0.78125,12.6667 1.5625,25.3333 2.34375,38 -0.90625,0 -1.8125,0 -2.71875,0 -1.041667,-12.6667 -2.083333,-25.3333 -3.125,-38 z m 7.25,0 c 1.5,0 3,0 4.5,0 0.166667,12.6667 0.333333,25.3333 0.5,38 -1.166667,0 -2.333333,0 -3.5,0 -0.5,-12.6667 -1,-25.3333 -1.5,-38 z m 9.09375,0 c 1.5,0 3,0 4.5,0 -0.5,12.6667 -1,25.3333 -1.5,38 -1.166667,0 -2.333333,0 -3.5,0 0.166667,-12.6667 0.333333,-25.3333 0.5,-38 z m 8.25,0 c 1.166667,0 2.333333,0 3.5,0 -1.041667,12.6667 -2.083333,25.3333 -3.125,38 -0.90625,0 -1.8125,0 -2.71875,0 0.78125,-12.6667 1.5625,-25.3333 2.34375,-38 z"
       id="rect5109"
       inkscape:connector-curvature="0" />
    <g
       id="g5143"
       transform="translate(0,-58.513086)">
      <path
         style="fill:#6c5353;fill-opacity:1;stroke:none"
         d="m 5.46875,1004.3622 4.0625,48 9.375,0 9.71875,0 9.375,0 4.0625,-48 -13.25,0 -10.0625,0 -13.28125,0 z"
         id="path5133"
         inkscape:connector-curvature="0" />
      <path
         inkscape:connector-curvature="0"
         id="path5135"
         d="m 9.71875,1009.3622 3.118863,38 7.197373,0 7.461278,0 7.197373,0 3.118863,-38 -10.172288,0 -7.725183,0 -10.196279,0 z"
         style="fill:#cccccc;fill-opacity:1;stroke:none" />
      <path
         style="fill:#6c5353;fill-opacity:1;stroke:none"
         d="m 13.21875,1009.3622 2.341749,38 5.404034,0 5.602184,0 5.404034,0 2.341749,-38 -7.637702,0 -5.800332,0 -7.655716,0 z"
         id="path5137"
         inkscape:connector-curvature="0" />
      <path
         inkscape:connector-curvature="0"
         id="path5139"
         d="m 16.96875,1009.3622 1.509127,38 3.4826,0 3.610296,0 3.4826,0 1.509127,-38 -4.922075,0 -3.737991,0 -4.933684,0 z"
         style="fill:#cccccc;fill-opacity:1;stroke:none" />
      <path
         style="fill:#6c5353;fill-opacity:1;stroke:none"
         d="m 21.46875,1009.3622 0.509981,38 1.176878,0 1.220032,0 1.176878,0 0.509981,-38 -1.663322,0 -1.263183,0 -1.667245,0 z"
         id="path5141"
         inkscape:connector-curvature="0" />
    </g>
  </g>
</svg>
