<?xml version="1.0" encoding="UTF-8" standalone="no"?>
<!-- Created with Inkscape (http://www.inkscape.org/) -->

<svg
   xmlns:dc="http://purl.org/dc/elements/1.1/"
   xmlns:cc="http://creativecommons.org/ns#"
   xmlns:rdf="http://www.w3.org/1999/02/22-rdf-syntax-ns#"
   xmlns:svg="http://www.w3.org/2000/svg"
   xmlns="http://www.w3.org/2000/svg"
   version="1.1"
   width="48"
   height="48"
   id="svg2">
  <defs
     id="defs4" />
  <metadata
     id="metadata7">
    <rdf:RDF>
      <cc:Work
         rdf:about="">
        <dc:format>image/svg+xml</dc:format>
        <dc:type
           rdf:resource="http://purl.org/dc/dcmitype/StillImage" />
        <dc:title></dc:title>
      </cc:Work>
    </rdf:RDF>
  </metadata>
  <g
     transform="translate(0,-1004.3622)"
     id="layer1">
    <path
       d="m 5.46875,1004.3622 c 1.3541667,16 2.7083333,32 4.0625,48 9.489583,0 18.979167,0 28.46875,0 1.354167,-16 2.708333,-32 4.0625,-48 -12.197917,0 -24.395833,0 -36.59375,0 z m 4.25,5 c 1.166667,0 2.333333,0 3.5,0 0.78125,12.6667 1.5625,25.3333 2.34375,38 -0.90625,0 -1.8125,0 -2.71875,0 -1.041667,-12.6667 -2.083333,-25.3333 -3.125,-38 z m 7.25,0 c 1.5,0 3,0 4.5,0 0.166667,12.6667 0.333333,25.3333 0.5,38 -1.166667,0 -2.333333,0 -3.5,0 -0.5,-12.6667 -1,-25.3333 -1.5,-38 z m 9.09375,0 c 1.5,0 3,0 4.5,0 -0.5,12.6667 -1,25.3333 -1.5,38 -1.166667,0 -2.333333,0 -3.5,0 0.166667,-12.6667 0.333333,-25.3333 0.5,-38 z m 8.25,0 c 1.166667,0 2.333333,0 3.5,0 -1.041667,12.6667 -2.083333,25.3333 -3.125,38 -0.90625,0 -1.8125,0 -2.71875,0 0.78125,-12.6667 1.5625,-25.3333 2.34375,-38 z"
       id="rect5109"
       style="fill:#ececec;fill-opacity:1;stroke:none" />
  </g>
</svg>
