<?xml version="1.0" encoding="UTF-8" standalone="no"?>
<!-- Created with Inkscape (http://www.inkscape.org/) -->

<svg
   xmlns:dc="http://purl.org/dc/elements/1.1/"
   xmlns:cc="http://creativecommons.org/ns#"
   xmlns:rdf="http://www.w3.org/1999/02/22-rdf-syntax-ns#"
   xmlns:svg="http://www.w3.org/2000/svg"
   xmlns="http://www.w3.org/2000/svg"
   xmlns:sodipodi="http://sodipodi.sourceforge.net/DTD/sodipodi-0.dtd"
   xmlns:inkscape="http://www.inkscape.org/namespaces/inkscape"
   width="48"
   height="48"
   id="svg2"
   version="1.1"
   inkscape:version="0.48.4 r9939"
   sodipodi:docname="New document 1">
  <defs
     id="defs4" />
  <sodipodi:namedview
     id="base"
     pagecolor="#ffffff"
     bordercolor="#666666"
     borderopacity="1.0"
     inkscape:pageopacity="0.0"
     inkscape:pageshadow="2"
     inkscape:zoom="5.6"
     inkscape:cx="42.50058"
     inkscape:cy="12.535882"
     inkscape:document-units="px"
     inkscape:current-layer="layer1"
     showgrid="false"
     showguides="true"
     inkscape:guide-bbox="true"
     inkscape:window-width="1317"
     inkscape:window-height="768"
     inkscape:window-x="49"
     inkscape:window-y="0"
     inkscape:window-maximized="1">
    <sodipodi:guide
       orientation="0.70710678,0.70710678"
       position="-10.543467,10.669736"
       id="guide4099" />
    <sodipodi:guide
       orientation="-0.70710678,0.70710678"
       position="35.92355,-6.2503189"
       id="guide4146" />
  </sodipodi:namedview>
  <metadata
     id="metadata7">
    <rdf:RDF>
      <cc:Work
         rdf:about="">
        <dc:format>image/svg+xml</dc:format>
        <dc:type
           rdf:resource="http://purl.org/dc/dcmitype/StillImage" />
        <dc:title></dc:title>
      </cc:Work>
    </rdf:RDF>
  </metadata>
  <g
     inkscape:label="Layer 1"
     inkscape:groupmode="layer"
     id="layer1"
     transform="translate(0,-1004.3622)">
    <rect
       transform="matrix(-0.70710678,0.70710678,-0.70710678,-0.70710678,0,0)"
       ry="0"
       y="-801.43793"
       x="653.11218"
       height="7.7437816"
       width="40"
       id="rect4105"
       style="fill:#ffb380;stroke:none" />
    <path
       style="fill:#ffb380;stroke:none"
       id="path4126"
       d="m 1.6406893,62.185603 c 0.039548,0.152752 0.091926,0.302203 0.1431123,0.451421 0.1143753,0.321104 0.26754,0.625957 0.4262955,0.926894 0.2178711,0.402593 0.4404242,0.80252 0.6677226,1.19987 0.2196371,0.391502 0.4630063,0.768793 0.7059496,1.146029 0.2329573,0.362185 0.4734075,0.719506 0.7192229,1.073071 0.2354385,0.335712 0.4746231,0.668716 0.7136682,1.001853 0.2295503,0.3179 0.4664617,0.630283 0.7052082,0.941294 0.2359609,0.304953 0.4731939,0.609002 0.7148021,0.90951 0.2317229,0.289279 0.4682079,0.574676 0.7059432,0.859018 0.2311423,0.276327 0.4736308,0.542742 0.712627,0.812194 0.1944971,0.21927 0.3948253,0.433436 0.5970201,0.645622 0,0 -5.9299951,0.446912 -5.9299951,0.446912 l 0,0 C 2.3211726,72.380514 2.1204239,72.161427 1.9256521,71.936963 1.6842611,71.66336 1.4459026,71.387055 1.2141718,71.105193 0.9775308,70.816569 0.74300755,70.526192 0.51218429,70.232887 0.2736666,69.92699 0.03484282,69.621319 -0.1992106,69.311978 -0.43833229,68.995542 -0.67428733,68.67671 -0.90242756,68.352229 -1.1411515,68.0162 -1.3777185,67.678605 -1.6096129,67.33782 c -0.2428119,-0.361286 -0.4828868,-0.724411 -0.714563,-1.092974 -0.2427187,-0.3864 -0.4789744,-0.776738 -0.7002289,-1.175925 -0.2281833,-0.404644 -0.4535926,-0.810842 -0.6824158,-1.215124 -0.1748418,-0.32516 -0.3437809,-0.653737 -0.4875914,-0.994047 -0.065545,-0.150166 -0.1291501,-0.301691 -0.2008616,-0.448909 0,0 6.0359629,-0.225238 6.0359629,-0.225238 z"
       inkscape:connector-curvature="0"
       transform="translate(0,1004.3622)" />
    <path
       style="fill:#ffb380;stroke:none"
       id="path4128"
       d="m 91.420862,52.22508 c 0.179867,0.07083 0.324792,0.199872 0.472455,0.32135 0.269503,0.173939 0.563258,0.309571 0.839881,0.473466 0.394166,0.194631 0.747448,0.45694 1.120235,0.6869 0.463341,0.287724 0.920883,0.584549 1.387271,0.868158 0.52148,0.315728 1.034689,0.643983 1.553862,0.963258 0.560841,0.376957 1.119695,0.756617 1.6764,1.139656 0.60684,0.403092 1.19764,0.82945 1.795444,1.245615 0.63135,0.450743 1.25591,0.911043 1.88588,1.363836 0.65553,0.472634 1.31382,0.941342 1.97021,1.412969 0.68683,0.516914 1.37329,1.034172 2.05595,1.556579 0.73064,0.560713 1.45701,1.126885 2.18015,1.697322 0.73177,0.597527 1.50485,1.140147 2.25708,1.710546 0.77724,0.590075 1.543,1.195021 2.30688,1.802218 0.80885,0.633898 1.62078,1.263817 2.42373,1.905246 0.83773,0.678848 1.66945,1.364921 2.50226,2.0498 0.8342,0.693836 1.66962,1.385987 2.49469,2.090648 0.80589,0.694194 1.60426,1.396978 2.40876,2.0928 0.77031,0.671458 1.53505,1.349181 2.29186,2.035832 0.72199,0.632548 1.42323,1.28791 2.13222,1.934781 0.61659,0.571605 1.25876,1.111047 1.92568,1.62264 0.5202,0.384217 1.08319,0.706099 1.68,0.953988 0.46209,0.211567 0.95386,0.295184 1.45826,0.290156 5.85088,-0.894403 0.65773,-0.129685 -16.13643,-0.119388 -0.0712,4.4e-5 0.13744,0.03731 0.20714,0.05165 0.21231,0.04369 0.20212,0.03377 0.41686,0.03827 0.45888,0.0013 0.87814,-0.17797 1.25973,-0.418079 0.48521,-0.302569 0.90339,-0.688349 1.30683,-1.089768 0.49609,-0.537612 0.94949,-1.11338 1.40034,-1.689007 0.54151,-0.679907 1.03762,-1.393184 1.50876,-2.123082 0.54621,-0.860992 1.07149,-1.735091 1.58541,-2.615669 0.59096,-1.020678 1.16406,-2.051542 1.73393,-3.084102 0.6678,-1.231779 1.37638,-2.440789 2.09344,-3.644351 0.86396,-1.410362 1.74174,-2.812343 2.62187,-4.212684 0.92889,-1.477164 1.8663,-2.948886 2.81364,-4.414277 0.95737,-1.469396 1.91036,-2.941662 2.87778,-4.404474 0.96999,-1.463917 1.97124,-2.906648 2.99837,-4.330959 1.04453,-1.4325 2.16524,-2.806727 3.30586,-4.163134 1.13985,-1.355115 2.3392,-2.657837 3.56099,-3.93894 1.22664,-1.283631 2.53003,-2.48929 3.85784,-3.666669 1.33012,-1.169839 2.70924,-2.28187 4.11542,-3.358491 1.42142,-1.078241 2.90567,-2.068496 4.41215,-3.022774 1.50772,-0.945994 3.05971,-1.817975 4.62369,-2.666646 1.53932,-0.833382 3.11131,-1.603293 4.69517,-2.347687 1.56313,-0.731801 3.15222,-1.405516 4.74743,-2.063702 1.26579,-0.51999 2.53886,-1.021907 3.81379,-1.518963 0,0 16.50241,1.9967 16.50241,1.9967 l 0,0 c -1.28385,0.485721 -2.56579,0.976574 -3.84116,1.484258 -1.59424,0.636123 -3.18508,1.281708 -4.75036,1.986843 -1.58179,0.712449 -3.15238,1.450189 -4.69097,2.252469 -1.56107,0.812913 -3.10886,1.652166 -4.61887,2.557153 -1.49683,0.906596 -2.97178,1.848782 -4.38796,2.878254 -1.40667,1.030385 -2.78207,2.102114 -4.10962,3.23325 -1.31814,1.136295 -2.62068,2.292312 -3.84381,3.531637 -1.22355,1.238621 -2.41422,2.509586 -3.55131,3.828451 -1.1302,1.320613 -2.25125,2.650372 -3.29735,4.039348 -1.02658,1.400392 -2.02694,2.819499 -2.99504,4.261067 -0.97028,1.453609 -1.92138,2.919655 -2.87345,4.385225 -0.94522,1.457024 -1.89009,2.914223 -2.80378,4.391345 -0.86571,1.380947 -1.7064,2.777257 -2.55024,4.171641 -0.6923,1.182522 -1.36461,2.37675 -2.00716,3.587117 -0.55562,1.044167 -1.11473,2.086502 -1.68654,3.121911 -0.50125,0.902028 -1.00858,1.800292 -1.53988,2.685117 -0.46611,0.773502 -0.93404,1.547639 -1.47124,2.274745 -0.44476,0.612596 -0.90516,1.212875 -1.36492,1.814186 -0.39436,0.511226 -0.81407,1.007184 -1.29605,1.438598 -0.41854,0.370059 -0.81806,0.764389 -1.30084,1.053572 -5.31896,2.974542 -12.49235,2.272271 -18.17363,0.138025 -0.51494,-0.218689 -1.0078,-0.481777 -1.47776,-0.785942 -0.57749,-0.390825 -1.13693,-0.807053 -1.6548,-1.27527 -0.64026,-0.560094 -1.25862,-1.144213 -1.88294,-1.721911 -0.69779,-0.646682 -1.40764,-1.280154 -2.11203,-1.919617 -0.75247,-0.673632 -1.50648,-1.345497 -2.27025,-2.006339 -0.7966,-0.694234 -1.58772,-1.394894 -2.39859,-2.072577 -0.82545,-0.692456 -1.65309,-1.382395 -2.48727,-2.064329 -0.83206,-0.679305 -1.666138,-1.356321 -2.512837,-2.017369 -0.813902,-0.633647 -1.629597,-1.26497 -2.441912,-1.900647 C 95.404,68.391913 94.633822,67.802504 93.853893,67.226091 93.087083,66.660986 92.344969,66.063761 91.589679,65.48348 90.85987,64.923166 90.135152,64.356345 89.393188,63.81203 88.708436,63.301522 88.021957,62.792908 87.322801,62.302246 86.660579,61.832302 86.003923,61.354659 85.341458,60.885086 84.713835,60.433972 84.085217,59.984134 83.444963,59.55106 82.845786,59.137298 82.240202,58.733088 81.633929,58.329819 81.077538,57.963013 80.520857,57.595756 79.945555,57.258974 79.422893,56.935129 78.894012,56.621528 78.371393,56.29749 77.904618,56.004869 77.43058,55.724504 76.958327,55.441167 76.580684,55.213246 76.181248,55.024055 75.8075,54.789186 c -0.311099,-0.179673 -0.606163,-0.382605 -0.893142,-0.59797 -0.180688,-0.102403 -0.369075,-0.195115 -0.518264,-0.342961 0,0 17.024768,-1.623175 17.024768,-1.623175 z"
       inkscape:connector-curvature="0"
       transform="translate(0,1004.3622)" />
    <path
       style="fill:#ffb380;stroke:none"
       id="path4130"
       d="m -133.4784,1017.2202 c 0.15734,0.1214 0.27978,0.2779 0.42095,0.4193 0.23331,0.2074 0.4696,0.411 0.69874,0.6244 0.33378,0.3007 0.68511,0.5788 1.02968,0.8669 0.44637,0.3678 0.89049,0.737 1.33516,1.1065 0.53774,0.4587 1.06504,0.9293 1.60419,1.3864 0.6604,0.5375 1.30093,1.0984 1.96357,1.6331 0.82815,0.6648 1.64,1.3503 2.44158,2.0468 0.98829,0.8277 1.92418,1.7129 2.85174,2.6071 1.1149,1.0827 2.22621,2.169 3.33098,3.262 1.2898,1.2833 2.55757,2.5888 3.80328,3.9149 1.31343,1.3956 2.61774,2.7999 3.90705,4.2179 1.30475,1.4362 2.5876,2.8921 3.89049,4.3301 1.28325,1.4278 2.57522,2.8477 3.85981,4.2743 1.25178,1.3829 2.494792,2.7737 3.74166,4.1611 1.17267,1.3056 2.360179,2.5978 3.552512,3.8855 1.068596,1.1361 2.142216,2.2677 3.228133,3.3873 0.916248,0.9381 1.83763,1.8712 2.751038,2.8121 0.753844,0.7873 1.502515,1.5799 2.236013,2.3863 0.577226,0.6439 1.153085,1.2889 1.731662,1.9316 0.446395,0.487 0.871752,0.9925 1.298006,1.497 0.314214,0.3618 0.602716,0.7444 0.889323,1.1281 0.209663,0.2413 0.37188,0.5063 0.532312,0.7795 0.121977,0.178 0.166841,0.4016 0.196853,0.6124 0.316716,6.9443 -9.852341,1.3668 -17.17238,1.3108 -0.137952,-0.1466 -0.290952,-0.2848 -0.417297,-0.4408 -0.122699,-0.092 -0.162314,-0.3202 -0.282705,-0.3984 -0.10581,-0.3181 -0.0882,-0.6667 -0.0804,-0.9983 0.005,-0.091 0.0266,-0.7584 0.12571,-0.7634 0.03149,-0 0.04702,0.044 0.0756,0.057 0.177358,0.058 0.355626,-0.1655 0.466729,-0.2807 0.279026,-0.2786 0.523048,-0.5894 0.773219,-0.8935 0.415033,-0.4944 0.834114,-0.9854 1.252988,-1.4766 0.611312,-0.7186 1.150002,-1.4927 1.694846,-2.2615 0.824208,-1.1429 1.638103,-2.293 2.471847,-3.429 1.029791,-1.4054 2.098637,-2.7814 3.177845,-4.1489 1.301471,-1.6415 2.616571,-3.2719 3.947932,-4.8892 1.611548,-1.9527 3.263304,-3.8715 4.935343,-5.7725 1.847806,-2.1048 3.73637,-4.1728 5.665034,-6.2036 2.018205,-2.1284 4.121182,-4.1729 6.260563,-6.1786 2.133289,-1.9762 4.29328,-3.9235 6.465671,-5.8565 2.07534,-1.8416 4.177667,-3.6523 6.289056,-5.4522 2.006942,-1.7044 4.036818,-3.3814 6.076563,-5.0463 1.909631,-1.5521 3.839903,-3.0785 5.77364,-4.6003 1.772837,-1.3994 3.562389,-2.7772 5.360219,-4.1442 1.657481,-1.2542 3.319375,-2.5025 4.983133,-3.7484 1.032339,-0.7736 2.074619,-1.5338 3.118789,-2.2914 0,0 16.453608,1.5624 16.453608,1.5624 l 0,0 c -1.052859,0.7524 -2.108574,1.5009 -3.152563,2.2656 -1.685211,1.2358 -3.358919,2.4871 -5.039971,3.7284 -1.814547,1.3596 -3.626547,2.7226 -5.419003,4.1112 -1.95125,1.514 -3.904666,3.0255 -5.833764,4.5677 -2.057438,1.6477 -4.096727,3.318 -6.120393,5.007 -2.128566,1.7827 -4.237351,3.5888 -6.330312,5.4132 -2.183482,1.9131 -4.347913,3.8482 -6.48767,5.8102 -2.128292,1.9755 -4.232349,3.9772 -6.232055,6.0843 -1.910684,2.003 -3.776601,4.0474 -5.586691,6.1421 -1.637985,1.8773 -3.256396,3.7717 -4.810259,5.7198 -1.287577,1.6091 -2.553026,3.2351 -3.808249,4.8695 -1.04673,1.3476 -2.084178,2.7028 -3.076579,4.0912 -0.796249,1.1202 -1.582108,2.2473 -2.335556,3.3969 -0.525561,0.7925 -1.011915,1.6109 -1.575751,2.3775 -0.374327,0.5162 -0.782119,1.0055 -1.173851,1.5084 -0.247676,0.3104 -0.48416,0.629 -0.714052,0.9528 -0.164445,0.2109 -0.323765,0.4301 -0.439012,0.672 -0.249315,0.4694 -0.04723,-0.3656 -0.103666,-0.4997 -0.0058,-0.2387 -0.03853,-0.4966 0.01555,-0.7248 0.02891,0.041 0.154749,0.056 0.232694,0.057 0.134514,0.01 0.214892,0.055 0.344399,-0.025 -12.775269,-0.049 -17.077829,-5.5344 -16.882601,1.2443 -0.02725,0.026 -0.07014,0.031 -0.127679,-0.088 -0.145082,-0.2173 -0.331948,-0.4109 -0.469053,-0.6366 -0.266393,-0.3553 -0.545243,-0.7006 -0.826443,-1.0444 -0.40244,-0.4915 -0.81463,-0.9746 -1.23002,-1.4552 -0.55016,-0.6404 -1.09611,-1.2846 -1.66109,-1.9121 -0.71103,-0.7885 -1.42428,-1.575 -2.15792,-2.3425 -0.89445,-0.9403 -1.78817,-1.8814 -2.6758,-2.8282 -1.05524,-1.1359 -2.1073,-2.2749 -3.14936,-3.4229 -1.17611,-1.298 -2.35125,-2.5968 -3.51239,-3.9083 -1.23526,-1.3881 -2.47071,-2.776 -3.71411,-4.1568 -1.28428,-1.424 -2.56895,-2.8477 -3.84983,-4.2747 -1.29383,-1.4425 -2.58221,-2.89 -3.89302,-4.3171 -1.29462,-1.4039 -2.59581,-2.8019 -3.91586,-4.182 -1.26717,-1.3034 -2.54748,-2.5945 -3.86409,-3.8482 -1.1341,-1.0819 -2.27377,-2.158 -3.42362,-3.2231 -0.95324,-0.8651 -1.93208,-1.7002 -2.92844,-2.5154 -0.82625,-0.678 -1.65909,-1.3476 -2.49892,-2.0087 -0.67706,-0.5525 -1.35788,-1.1004 -2.02728,-1.6621 -0.54147,-0.4571 -1.08226,-0.9153 -1.6419,-1.3503 -0.46091,-0.367 -0.9112,-0.7473 -1.37374,-1.1125 -0.3653,-0.2959 -0.72124,-0.6024 -1.08045,-0.9055 -0.24851,-0.1996 -0.49483,-0.4008 -0.74219,-0.6008 -0.14147,-0.099 -0.29829,-0.163 -0.44339,-0.2516 0,0 17.02566,-1.6486 17.02566,-1.6486 z"
       inkscape:connector-curvature="0" />
    <path
       style="fill:#ffb380;stroke:none"
       id="path4132"
       d="m 1.4202704,-77.372654 c 0.1859218,0.171957 0.3874894,0.344302 0.6168708,0.471951 0.2551138,0.307369 0.5957456,0.518532 0.883225,0.789533 0.3481762,0.279255 0.6926233,0.565526 1.027779,0.862499 0.4119177,0.358705 0.8662504,0.669815 1.3163257,0.978753 0.4718503,0.381114 0.9104778,0.798014 1.397844,1.160024 0.4590085,0.400321 0.9516244,0.759936 1.3986336,1.174246 0.4473338,0.399396 0.9169585,0.770326 1.3862572,1.143594 0.4892274,0.427246 0.9744353,0.864656 1.4316463,1.326839 0.48443,0.488852 0.970605,0.975971 1.456616,1.463251 0.528269,0.573626 1.091907,1.113145 1.626858,1.680337 0.52362,0.567154 1.116954,1.062636 1.660213,1.610086 0.542416,0.542862 1.057912,1.113845 1.608173,1.648882 0.517277,0.550485 1.025535,1.1078 1.591117,1.609345 0.528376,0.5256 1.107979,0.99112 1.704879,1.436367 0.596925,0.445112 1.133481,0.960784 1.698543,1.443455 0.531939,0.43515 1.068141,0.867743 1.576458,1.330724 0.485776,0.463886 1.0368,0.85002 1.536181,1.298011 0.525767,0.488859 1.061576,0.964947 1.605896,1.432732 0.539877,0.510523 1.091197,1.010903 1.666907,1.480918 0.577379,0.45487 1.162667,0.901831 1.710205,1.393143 0.551818,0.478781 1.121597,0.939076 1.694603,1.392636 0.5387,0.479561 1.115879,0.913644 1.663218,1.382611 0.524885,0.424814 1.088787,0.797814 1.620498,1.212855 0.515299,0.38104 1.033359,0.762212 1.521555,1.178054 0.475014,0.371333 0.937049,0.758072 1.404494,1.139335 0.470643,0.393038 0.897117,0.836453 1.368589,1.228543 0.392318,0.32088 0.8311,0.558746 1.335945,0.624447 6.73154,-1.308333 -21.18838,-3.476757 -15.90535,-0.02763 0.269014,0.212129 0.518868,0.04312 0.691362,-0.19229 0.317153,-0.429747 0.645961,-0.850779 0.968846,-1.276309 0.662342,-0.843822 1.433249,-1.595381 2.167107,-2.376258 0.971562,-1.049742 1.96218,-2.081546 2.947017,-3.118768 1.116766,-1.154843 2.204137,-2.337612 3.273969,-3.535924 1.19702,-1.343794 2.416433,-2.667404 3.641401,-3.985692 1.273805,-1.384088 2.608196,-2.709361 3.933083,-4.043873 1.342726,-1.35267 2.716703,-2.67345 4.099974,-3.984419 1.367164,-1.298642 2.739742,-2.591558 4.104932,-3.89228 1.312421,-1.274631 2.694335,-2.473662 4.097514,-3.646496 1.352837,-1.11561 2.743766,-2.18394 4.129333,-3.258317 1.363584,-1.046359 2.736385,-2.080711 4.129674,-3.08722 1.39981,-1.011191 2.858605,-1.936954 4.32007,-2.855509 1.485283,-0.930128 3.01008,-1.794895 4.554594,-2.622194 1.523168,-0.831314 3.092467,-1.568793 4.691266,-2.241271 1.588143,-0.650408 3.212169,-1.205546 4.842975,-1.737543 1.599704,-0.507403 3.204577,-0.998164 4.807183,-1.496219 0.721998,-0.231807 1.443477,-0.465202 2.165609,-0.696593 0,0 16.527511,2.109926 16.527511,2.109926 l 0,0 c -0.73669,0.221537 -1.47308,0.444115 -2.20496,0.681218 -1.60769,0.520334 -3.23383,0.980146 -4.843162,1.495523 -1.623473,0.492125 -3.235079,1.022277 -4.82501,1.614594 -1.5961,0.602726 -3.171873,1.263059 -4.677522,2.069421 -1.538344,0.792231 -3.064684,1.608799 -4.546183,2.504083 -1.452236,0.888305 -2.887187,1.804728 -4.300021,2.754627 -1.400501,0.974325 -2.76687,1.995003 -4.12697,3.02474 -1.390796,1.05583 -2.769991,2.127096 -4.145989,3.202051 -1.405783,1.133136 -2.796792,2.287086 -4.110256,3.527317 -1.37436,1.295123 -2.750479,2.588464 -4.114698,3.894276 -1.378909,1.297465 -2.761324,2.591604 -4.097889,3.933026 -1.315235,1.318749 -2.644101,2.625239 -3.90309,3.998446 -1.224989,1.28976 -2.419822,2.607876 -3.604118,3.935034 -1.054766,1.214339 -2.099575,2.439297 -3.209627,3.603801 -0.969537,1.019618 -1.936126,2.042925 -2.865776,3.099248 -0.659284,0.73008 -1.311317,1.467211 -1.952364,2.213154 -0.300991,0.413922 -0.592378,0.834697 -0.890396,1.250315 -0.282098,0.404086 -0.445345,0.885951 -0.764934,1.269699 -4.089387,4.446452 -13.046513,3.31146 -17.894472,-0.154323 -0.464038,-0.353734 -0.902919,-0.737318 -1.326627,-1.138481 -0.439443,-0.407146 -0.900849,-0.790115 -1.370453,-1.16158 -0.464842,-0.375872 -0.92531,-0.756467 -1.397183,-1.123535 -0.505049,-0.373391 -0.998497,-0.762296 -1.503454,-1.135867 -0.556168,-0.405304 -1.0838,-0.849613 -1.611577,-1.290807 -0.5599,-0.448067 -1.092697,-0.928786 -1.65745,-1.371023 -0.563514,-0.474571 -1.141151,-0.932018 -1.69348,-1.420007 -0.578727,-0.457098 -1.153732,-0.919675 -1.705716,-1.408841 C 11.220442,-52.078194 10.666907,-52.579027 10.1022,-53.06679 9.5632831,-53.538978 9.0388654,-54.028153 8.4796336,-54.476879 7.9490423,-54.898525 7.4458602,-55.351196 6.9354113,-55.7966 6.4083906,-56.232142 5.8917365,-56.680671 5.3767281,-57.130213 4.8349575,-57.610695 4.2562975,-58.046887 3.6981192,-58.507874 3.1060827,-59.016599 2.53565,-59.547002 1.9801721,-60.09556 c -0.5312943,-0.551567 -1.05344911,-1.112045 -1.59534926,-1.653354 -0.52068423,-0.549992 -1.05976993,-1.082824 -1.60197684,-1.611349 -0.5720056,-0.533265 -1.1157936,-1.094483 -1.65655,-1.659178 -0.5506117,-0.547341 -1.0807145,-1.114728 -1.6460093,-1.647277 -0.488838,-0.477685 -0.9757446,-0.957768 -1.4809445,-1.418256 -0.4690388,-0.40799 -0.9236063,-0.831294 -1.4271463,-1.197895 -0.4727391,-0.386652 -0.9238067,-0.798799 -1.3947332,-1.18756 -0.47158,-0.365133 -0.9214733,-0.756534 -1.3926587,-1.122049 -0.44883,-0.383441 -0.904016,-0.758887 -1.397303,-1.084746 -0.459816,-0.354498 -0.92127,-0.704703 -1.356673,-1.089818 -0.355283,-0.280935 -0.707528,-0.564921 -1.053618,-0.856077 -0.303831,-0.219919 -0.554676,-0.50862 -0.896415,-0.674007 -0.223527,-0.197064 -0.458591,-0.375705 -0.69785,-0.54479 0,0 17.0373254,-1.530738 17.0373254,-1.530738 z"
       inkscape:connector-curvature="0"
       transform="translate(0,1004.3622)" />
    <path
       style="fill:#ffb380;stroke:none"
       id="path4134"
       d="m 95.719104,-19.196151 c 0.05805,0.181231 0.185733,0.305066 0.308216,0.440495 0.220579,0.213963 0.396791,0.472928 0.577206,0.721689 0.247544,0.286577 0.476243,0.588132 0.71321,0.883287 0.262604,0.363804 0.532987,0.723196 0.781187,1.097047 0.286732,0.420657 0.575786,0.839676 0.865727,1.258131 0.311266,0.445235 0.629747,0.885416 0.933986,1.335904 0.320424,0.444485 0.627604,0.898499 0.956424,1.336903 0.31779,0.453936 0.66962,0.8824 1.00699,1.321514 0.3634,0.456206 0.69424,0.9368179 1.04436,1.4028926 0.33946,0.4700115 0.69713,0.9262494 1.03357,1.3984837 0.33806,0.4661953 0.68821,0.9232657 1.03283,1.3845271 0.35951,0.4552601 0.69511,0.9285264 1.05162,1.3861122 0.37172,0.4457355 0.70914,0.917845 1.06381,1.37677 0.37143,0.4611313 0.71938,0.9403013 1.08253,1.4077014 0.37285,0.4681197 0.74324,0.9381219 1.10717,1.4132512 0.31137,0.44262572 0.66706,0.85087817 1.0002,1.27643602 0.26594,0.3148795 0.52233,0.63668269 0.81467,0.92782368 0.22083,0.232569 0.42148,0.4840883 0.6449,0.713895 0.18078,0.1358397 0.29841,0.3381543 0.47157,0.4803989 0.0572,0.034032 0.22274,0.1307085 0.28262,0.1073593 0.0115,0.013849 0.0234,0.055642 0.0346,0.041547 0.0577,-0.072515 0.0188,-0.1844546 0.0261,-0.2768614 0.002,-0.027911 0.0403,-0.083946 0.0123,-0.083089 -5.65007,0.2007075 -11.30013,0.4014151 -16.950196,0.6021226 0.0082,0.00272 0.01647,0.00545 0.02471,0.00817 0.09638,-0.047195 0.116109,-0.280973 0.142278,-0.3864508 0.08124,-0.2532756 0.150899,-0.5099287 0.218947,-0.766996 0.101729,-0.3817819 0.229994,-0.755721 0.367567,-1.12586841 0.185813,-0.48795661918 0.392398,-0.96776762 0.598735,-1.44731949 0.265206,-0.6223121 0.554582,-1.2335525 0.849964,-1.8419582 0.362291,-0.7382699 0.755394,-1.4606304 1.147728,-2.1831768 0.483841,-0.8895201 1.014234,-1.7522452 1.557825,-2.6061416 0.68066,-1.0500495 1.4105,-2.0664212 2.16853,-3.0616212 0.95225,-1.238225 1.96507,-2.427885 2.98395,-3.611283 1.0706,-1.248076 2.16772,-2.472766 3.2821,-3.681793 1.13836,-1.229257 2.30048,-2.436142 3.46928,-3.636388 1.18303,-1.214917 2.39972,-2.396296 3.61719,-3.576482 1.25069,-1.210469 2.50862,-2.413363 3.77591,-3.606438 1.30218,-1.224724 2.62283,-2.429614 3.95344,-3.623329 1.36511,-1.22274 2.73655,-2.438394 4.1143,-3.646869 1.4142,-1.241513 2.8535,-2.45393 4.30385,-3.65286 1.4713,-1.210186 2.97416,-2.3813 4.48043,-3.547438 1.49363,-1.151192 2.99898,-2.287032 4.50932,-3.416177 1.50024,-1.117786 3.0167,-2.213718 4.53539,-3.306243 1.46869,-1.050069 2.94629,-2.087594 4.42733,-3.120136 0,0 16.49457,1.599899 16.49457,1.599899 l 0,0 c -1.49332,1.019256 -2.97843,2.050526 -4.45549,3.093212 -1.52437,1.072708 -3.03245,2.168465 -4.5351,3.271358 -1.51355,1.119645 -3.0227,2.245106 -4.51853,3.388377 -1.50317,1.148682 -2.99672,2.310365 -4.47145,3.495384 -1.44609,1.179572 -2.87819,2.376161 -4.2862,3.601082 -1.37243,1.201856 -2.73876,2.410482 -4.09718,3.628164 -1.32035,1.187149 -2.64145,2.37361 -3.93805,3.586816 -1.2611,1.183725 -2.51302,2.377068 -3.75327,3.582622 -1.2086,1.171926 -2.42243,2.338763 -3.60819,3.533914 -1.16589,1.184104 -2.31835,2.381351 -3.45703,3.591665 -1.10748,1.188169 -2.20115,2.388939 -3.26135,3.6197 -0.9869,1.153555 -1.98583,2.299017 -2.90222,3.5102896 -0.71468,0.9604085 -1.41327,1.9323024 -2.05818,2.9414878 -0.52356,0.8114288 -1.03352,1.63246 -1.49398,2.481722 -0.37405,0.7004657 -0.73754,1.406805 -1.09275,2.1170005 -0.28249,0.5777143 -0.55415,1.16098512 -0.79954,1.7555489 -0.18932,0.45348372 -0.36933,0.91079308 -0.54318,1.3704119 -0.11775,0.3194043 -0.23735,0.6382555 -0.32808,0.9666857 -0.0703,0.2616443 -0.12426,0.5269271 -0.18899,0.7899443 -0.0706,0.2116078 -0.0888,0.4350644 -0.14049,0.6515732 C 111.05548,9.2019911 97.019855,9.564303 95.450358,4.0382484 95.37394,3.8992316 95.248227,3.7842774 95.174203,3.638908 95.038656,3.4547291 94.859825,3.3065302 94.729798,3.1171394 94.531829,2.87041 94.315007,2.6392226 94.115492,2.3935439 93.852942,2.0525563 93.588022,1.7135553 93.330149,1.3690357 93.002017,0.94647278 92.698545,0.50529271 92.365601,0.08635607 91.993737,-0.38645331 91.621895,-0.85932039 91.257773,-1.3381359 90.899984,-1.8124484 90.524766,-2.2733007 90.168936,-2.7491593 89.819938,-3.2135859 89.448885,-3.6608378 89.104504,-4.1288359 88.758242,-4.596505 88.403929,-5.0580081 88.054523,-5.5232943 c -0.351178,-0.4643898 -0.691082,-0.9372846 -1.037036,-1.4055623 -0.346968,-0.4606418 -0.688822,-0.9249863 -1.030867,-1.389278 -0.338933,-0.4639663 -0.694922,-0.9149868 -1.046889,-1.3690757 -0.348884,-0.4499317 -0.682905,-0.9109517 -1.014235,-1.3739007 -0.31938,-0.457088 -0.644347,-0.910234 -0.959718,-1.370113 -0.315497,-0.442281 -0.632863,-0.883134 -0.940717,-1.330742 -0.291019,-0.413917 -0.583849,-0.82666 -0.884955,-1.233318 -0.262676,-0.33565 -0.51268,-0.681306 -0.794345,-1.001817 -0.244578,-0.301966 -0.498669,-0.59625 -0.731384,-0.907675 -0.211552,-0.24973 -0.435932,-0.49117 -0.616189,-0.764401 -0.11715,-0.183461 -0.201786,-0.389423 -0.338067,-0.559156 0,0 17.058983,-0.967818 17.058983,-0.967818 z"
       inkscape:connector-curvature="0"
       transform="translate(0,1004.3622)" />
    <path
       style="fill:#ffb380;stroke:none"
       id="path4136"
       d="m -146.4141,-79.596203 c 0.23299,0.326848 0.48046,0.637857 0.74155,0.945863 0.42781,0.471041 0.79943,1.000312 1.20937,1.49218 0.60201,0.698281 1.19868,1.400619 1.77222,2.122552 0.6775,0.812015 1.34157,1.6331 1.99375,2.465339 0.69462,0.936033 1.43147,1.839048 2.14236,2.762411 0.75245,0.926957 1.47964,1.874553 2.19171,2.832831 0.73266,0.935487 1.48832,1.852607 2.22762,2.782761 0.72667,0.926147 1.54761,1.769319 2.332,2.644772 0.81153,0.883266 1.64666,1.744423 2.46328,2.622709 0.82504,0.908064 1.66161,1.805707 2.50381,2.697957 0.84443,0.911104 1.68233,1.828301 2.5232,2.742852 0.82963,0.958109 1.68442,1.893872 2.51852,2.847989 0.83756,0.985939 1.66298,1.982077 2.48033,2.984759 0.82348,0.949911 1.60515,1.934557 2.41157,2.898615 0.66112,0.818432 1.33052,1.629134 2.03936,2.40702 0.52204,0.603406 1.04445,1.211792 1.6204,1.764941 0.44777,0.37473 0.84038,0.805182 1.26965,1.197716 0.35727,0.208481 0.56653,0.594238 0.88041,0.844983 0.11513,0.255549 0.34301,0.238958 0.47289,0.28047 2.6393,-11.116866 -37.3498,11.771567 -33.81418,0.535272 0.10689,-0.243079 0.19339,-0.489524 0.30954,-0.729683 0.14331,-0.391414 0.2903,-0.783824 0.41909,-1.181466 0.21328,-0.538481 0.45252,-1.06606 0.68511,-1.596428 0.28229,-0.562305 0.58825,-1.112597 0.85675,-1.681695 0.3354,-0.703352 0.71911,-1.382426 1.10429,-2.059382 0.45882,-0.754598 0.90624,-1.515762 1.35379,-2.277031 0.53028,-0.955341 1.07456,-1.903321 1.63526,-2.841164 0.67052,-1.096394 1.30724,-2.212793 1.95191,-3.324419 0.759,-1.306949 1.51615,-2.614961 2.276,-3.921412 0.85374,-1.464619 1.69941,-2.933902 2.54627,-4.402501 0.93509,-1.611971 1.91597,-3.196246 2.89946,-4.778902 1.07889,-1.75864 2.22303,-3.475655 3.38909,-5.177316 1.3378,-1.957095 2.74477,-3.865268 4.1467,-5.776482 1.54404,-2.126104 3.1546,-4.202391 4.7746,-6.270786 1.71515,-2.210765 3.49708,-4.368541 5.30688,-6.50212 1.92303,-2.255085 3.88678,-4.474863 5.89229,-6.65681 2.2228,-2.456675 4.62166,-4.741762 7.050653,-6.991322 2.862672,-2.67816 5.875221,-5.1837 8.96013,-7.5997 3.625046,-2.78889 7.412187,-5.35699 11.217123,-7.89157 4.188046,-2.79586 8.49216,-5.40971 12.827278,-7.96929 4.592891,-2.70128 9.260867,-5.27124 13.934315,-7.82953 4.670048,-2.57351 9.402095,-5.03113 14.149032,-7.45897 4.686337,-2.39715 9.417497,-4.70501 14.148535,-7.01219 3.014674,-1.47243 6.036058,-2.93101 9.060296,-4.38368 0,0 32.47361,3.674 32.47361,3.674 l 0,0 c -3.050634,1.43856 -6.099501,2.88098 -9.1339797,4.35341 -4.74338,2.27998 -9.48135602,4.57217 -14.1796225,6.94405 -4.7466757,2.40199 -9.4848748,4.822 -14.1588198,7.36354 -4.64621,2.52625 -9.286206,5.06593 -13.853857,7.73248 -4.282614,2.50886 -8.547394,5.05376 -12.68003,7.80515 -3.726571,2.46663 -7.426823,4.97746 -10.99608,7.66885 -3.011992,2.31624 -5.958457,4.71959 -8.726088,7.32637 -2.350247,2.19001 -4.698139,4.387312 -6.88282,6.745114 -1.977221,2.141477 -3.925567,4.30854 -5.81314,6.529876 -1.783479,2.092037 -3.561218,4.189662 -5.254467,6.356168 -1.57686,2.050176 -3.185807,4.076613 -4.699923,6.174236 -1.362063,1.881273 -2.728445,3.76031 -4.03371,5.681672 -1.130446,1.658778 -2.249884,3.325898 -3.307608,5.032296 -0.961751,1.554495 -1.91956,3.112419 -2.836711,4.693645 -0.856291,1.445887 -1.662447,2.920579 -2.495286,4.380025 -0.73924,1.303745 -1.4763,2.608572 -2.20747,3.916853 -0.63202,1.124038 -1.25313,2.253907 -1.88377,3.37864 -0.52899,0.905526 -1.0545,1.812482 -1.56199,2.730324 -0.41171,0.807899 -0.85483,1.599007 -1.31095,2.382624 -0.36428,0.600916 -0.7091,1.2125 -1.04608,1.829085 -0.29493,0.558293 -0.53342,1.145316 -0.83167,1.702412 -0.25165,0.417247 -0.43757,0.86592 -0.63189,1.311704 -0.17992,0.314524 -0.25499,0.684889 -0.37008,1.025324 -0.0881,0.323389 -0.21157,0.622719 -0.32491,0.936329 -5.51306,10.536864 -31.71503,12.573805 -34.43967,1.094905 -0.0949,-0.220401 -0.25788,-0.462837 -0.44754,-0.620515 -0.24092,-0.301532 -0.59388,-0.510138 -0.8147,-0.835757 -0.40312,-0.44753 -0.85781,-0.848192 -1.21326,-1.340719 -0.51492,-0.635919 -1.04338,-1.260305 -1.55854,-1.896047 -0.65012,-0.824239 -1.29382,-1.653446 -1.95719,-2.467114 -0.7813,-0.972858 -1.59881,-1.915915 -2.38639,-2.883698 -0.81435,-0.968174 -1.62547,-1.939304 -2.4821,-2.870883 -0.83431,-0.928915 -1.64986,-1.874926 -2.51033,-2.780071 -0.84066,-0.907986 -1.68281,-1.814605 -2.52972,-2.716711 -0.83484,-0.897966 -1.66359,-1.801655 -2.50582,-2.692673 -0.84236,-0.887107 -1.66945,-1.789349 -2.47935,-2.706179 -0.81496,-0.914173 -1.58374,-1.867682 -2.34313,-2.828276 -0.75965,-0.941929 -1.50437,-1.896191 -2.23258,-2.862624 -0.72931,-0.931252 -1.46616,-1.856486 -2.19585,-2.787396 -0.72197,-0.904447 -1.41955,-1.828349 -2.16444,-2.714383 -0.66966,-0.807148 -1.35905,-1.598006 -2.0297,-2.404466 -0.60896,-0.69315 -1.21743,-1.386691 -1.81943,-2.085919 -0.43273,-0.497779 -0.89065,-0.97289 -1.32669,-1.464045 -0.24173,-0.276232 -0.48026,-0.555339 -0.76464,-0.782672 0,0 34.0742,-2.589077 34.0742,-2.589077 z"
       inkscape:connector-curvature="0"
       transform="translate(0,1004.3622)" />
    <path
       style="fill:#d40000;stroke:none"
       d="m 48,1004.3622 c -2.489583,0.4271 -4.979167,0.8542 -7.46875,1.2813 -4.834846,5.9946 -9.51017,12.1561 -13.229039,18.9209 -4.041163,6.4872 -7.183313,13.47 -10.177211,20.4853 -2.995283,-4.7452 -6.740929,-9.032 -11.1875,-12.4687 -1.9791667,0.5 -3.9583333,1 -5.9375,1.5 6.3054298,4.7117 11.116015,11.1895 14.4375,18.2812 2.510417,-0.2917 5.020833,-0.5833 7.53125,-0.875 1.350161,-5.3228 3.950382,-10.2089 6.004089,-15.2763 3.302543,-7.2976 7.280031,-14.289 11.707205,-20.9601 2.609149,-3.7522 5.455899,-7.33 8.319956,-10.8886 z"
       id="path4140"
       inkscape:connector-curvature="0" />
    <path
       style="fill:#d40000;stroke:none"
       id="path4142"
       d="m 77.882259,1059.777 c 0.02496,-0.07 0.04709,-0.1399 0.06914,-0.2101 0.03787,-0.1281 0.07177,-0.2567 0.106904,-0.3852 0.04952,-0.1821 0.09867,-0.3642 0.151502,-0.5459 0.06474,-0.2242 0.139718,-0.4467 0.215533,-0.6692 0.0898,-0.2697 0.185915,-0.5383 0.282797,-0.8067 0.120031,-0.3274 0.239601,-0.6549 0.364049,-0.9815 0.148322,-0.4051 0.342887,-0.8001 0.536596,-1.1949 0.24042,-0.4946 0.491103,-0.9866 0.743681,-1.4781 0.315696,-0.6164 0.646499,-1.2285 0.978602,-1.8404 0.405287,-0.7498 0.84949,-1.4882 1.307723,-2.222 0.5286,-0.8559 1.122827,-1.6895 1.747951,-2.511 0.741748,-0.9656 1.521957,-1.9156 2.304858,-2.8644 0.8298,-1.0082 1.647457,-2.0214 2.477335,-3.0296 0.852368,-1.0348 1.740391,-2.0542 2.638008,-3.069 0.909798,-1.0284 1.85593,-2.0398 2.810848,-3.0469 0.947948,-0.9985 1.942866,-1.9734 2.954924,-2.939 0.973051,-0.9266 1.969873,-1.8403 2.97308,-2.7502 0.94811,-0.8595 1.92413,-1.7028 2.91124,-2.5394 0.92558,-0.7836 1.8682,-1.5567 2.80736,-2.3319 0.86084,-0.7153 1.7388,-1.4199 2.61756,-2.124 0.80207,-0.6419 1.61059,-1.2796 2.42323,-1.9146 0,0 8.17276,0.437 8.17276,0.437 l 0,0 c -0.82283,0.6331 -1.64603,1.2661 -2.4586,1.906 -0.89106,0.7002 -1.78171,1.4008 -2.65489,2.1125 -0.94893,0.7731 -1.90312,1.5429 -2.84074,2.323 -0.99501,0.8298 -1.97936,1.6662 -2.93581,2.5189 -1.01323,0.9043 -2.02042,1.8122 -3.00214,2.7341 -1.01403,0.956 -2.00954,1.9223 -2.96117,2.9109 -0.95514,0.9998 -1.89683,2.0064 -2.806814,3.0277 -0.892873,1.0087 -1.774789,2.0226 -2.62277,3.0511 -0.828049,1.0064 -1.643327,2.0181 -2.461222,3.0288 -0.762839,0.9408 -1.528971,1.8809 -2.236764,2.8439 -0.592255,0.8115 -1.173546,1.6277 -1.677684,2.4697 -0.440223,0.7233 -0.868499,1.4506 -1.245958,2.1921 -0.313051,0.6078 -0.616592,1.218 -0.91208,1.8303 -0.235369,0.4891 -0.471739,0.9779 -0.690679,1.471 -0.175563,0.382 -0.354842,0.7636 -0.492932,1.1537 -0.115259,0.3238 -0.228389,0.6479 -0.337279,0.9729 -0.0881,0.2661 -0.174282,0.5326 -0.256535,0.7997 -0.06783,0.2156 -0.134665,0.4314 -0.195178,0.6482 -0.04662,0.1778 -0.09413,0.3556 -0.12957,0.5347 -0.02866,0.128 -0.05407,0.2564 -0.08265,0.3844 -0.0158,0.083 -0.03584,0.1649 -0.05298,0.2475 0,0 -8.541234,-0.1441 -8.541234,-0.1441 z"
       inkscape:connector-curvature="0" />
    <rect
       style="fill:#d40000;stroke:none"
       id="rect4103"
       width="19.930016"
       height="6.1382365"
       x="716.77124"
       y="748.96051"
       ry="0"
       transform="matrix(0.70710678,0.70710678,-0.70710678,0.70710678,0,0)" />
    <path
       sodipodi:nodetypes="cccccccccccccccccccccccccccccccccccccccccccccccccccccccc"
       inkscape:connector-curvature="0"
       d="m -196.69978,1108.9307 c 0.008,-0.099 0.0425,-0.1905 0.0608,-0.2869 0.0299,-0.1143 0.0682,-0.2247 0.095,-0.341 0.0419,-0.1442 0.0841,-0.2887 0.13274,-0.4294 0.0558,-0.1779 0.11992,-0.3511 0.17452,-0.5298 0.0651,-0.2102 0.13031,-0.4206 0.19285,-0.6322 0.0773,-0.2329 0.15103,-0.4675 0.23076,-0.6992 0.0893,-0.2561 0.18757,-0.5071 0.28062,-0.7609 0.10801,-0.298 0.22465,-0.5907 0.34395,-0.8818 0.13113,-0.3199 0.26828,-0.6359 0.40337,-0.9531 0.14194,-0.3499 0.29606,-0.6914 0.44863,-1.034 0.17099,-0.3748 0.32923,-0.7585 0.49531,-1.1368 0.18885,-0.4221 0.37305,-0.8475 0.55668,-1.2733 0.20738,-0.4828 0.42081,-0.9613 0.62952,-1.443 0.22786,-0.5197 0.45534,-1.0395 0.68042,-1.5609 0.26925,-0.6165 0.5435,-1.2295 0.81856,-1.8418 0.31451,-0.7008 0.63731,-1.3955 0.96431,-2.0871 0.38484,-0.8144 0.77525,-1.6247 1.16568,-2.435 0.44347,-0.9227 0.91273,-1.8248 1.38281,-2.7262 0.52229,-1.0115 1.067,-2.0041 1.61639,-2.9925 0.62413,-1.1197 1.27222,-2.2179 1.92291,-3.3134 0.72406,-1.2069 1.44403,-2.4176 2.16507,-3.6272 0.76743,-1.293 1.57121,-2.5506 2.38829,-3.7943 0.85835,-1.3047 1.75955,-2.5628 2.66928,-3.8107 0.94831,-1.2929 1.91623,-2.5628 2.89072,-3.8245 0.96737,-1.2521 1.95088,-2.4844 2.93236,-3.7191 0.15725,-0.1976 0.31451,-0.3955 0.47176,-0.5933 l 7.46454,-1.2726 0,0 c -0.15923,0.1979 -0.31846,0.3956 -0.47769,0.5935 -0.98709,1.2308 -1.97854,2.4564 -2.95079,3.7059 -0.9681,1.2556 -1.93689,2.5105 -2.87954,3.7965 -0.90304,1.2328 -1.79991,2.4736 -2.65501,3.7597 -0.81207,1.226 -1.61083,2.4661 -2.3715,3.7434 -0.71529,1.2022 -1.41943,2.415 -2.13411,3.6177 -0.63658,1.084 -1.26873,2.1723 -1.88454,3.2752 -0.53683,0.978 -1.06873,1.9602 -1.58447,2.9561 -0.45639,0.8926 -0.91779,1.7814 -1.3555,2.689 -0.38303,0.7994 -0.75458,1.6077 -1.12946,2.4134 -0.31407,0.687 -0.63214,1.3713 -0.93711,2.065 -0.26814,0.6022 -0.53256,1.2073 -0.79175,1.816 -0.21984,0.5228 -0.43525,1.0489 -0.66584,1.5649 -0.20655,0.4764 -0.40622,0.9578 -0.6161,1.4321 -0.17904,0.4274 -0.35368,0.8577 -0.53987,1.2803 -0.16341,0.3778 -0.3264,0.7557 -0.48334,1.1381 -0.14646,0.3374 -0.29654,0.672 -0.4421,1.0101 -0.12932,0.3172 -0.2643,0.6304 -0.39547,0.9466 -0.11529,0.2784 -0.23476,0.5551 -0.33922,0.8402 -0.0934,0.2474 -0.18154,0.4982 -0.27278,0.7469 -0.082,0.2174 -0.1614,0.4362 -0.22924,0.6613 -0.0715,0.1992 -0.12969,0.4056 -0.18996,0.6103 -0.055,0.18 -0.097,0.3664 -0.16255,0.541 -0.0391,0.1344 -0.0845,0.2662 -0.12569,0.3993 -0.0392,0.1034 -0.0543,0.2153 -0.0911,0.3189 -0.0297,0.069 -0.33293,1.1141 -0.3644,1.1822 z"
       id="path4167"
       style="fill:#d40000;stroke:none" />
    <path
       inkscape:connector-curvature="0"
       d="m -196.6998,1108.9307 c -0.0317,-0.078 -0.0673,-0.1543 -0.10135,-0.2307 -0.0757,-0.162 -0.15795,-0.3203 -0.24081,-0.4781 -0.14809,-0.295 -0.29174,-0.5926 -0.43588,-0.89 -0.2036,-0.4142 -0.4215,-0.8197 -0.6375,-1.2263 -0.24511,-0.4561 -0.49639,-0.908 -0.75156,-1.3575 -0.27026,-0.4736 -0.54994,-0.941 -0.83592,-1.4038 -0.29937,-0.4836 -0.60712,-0.9613 -0.91797,-1.4363 -0.32428,-0.4992 -0.6665,-0.9839 -1.0086,-1.4688 -0.35305,-0.5019 -0.71974,-0.9918 -1.09436,-1.4749 -0.38649,-0.4983 -0.78743,-0.9831 -1.1893,-1.4668 -0.41357,-0.4853 -0.8374,-0.9601 -1.26265,-1.4331 -0.42845,-0.477 -0.86903,-0.9404 -1.32027,-1.3919 -0.44842,-0.4513 -0.90837,-0.8885 -1.37442,-1.3181 -0.46189,-0.4202 -0.93327,-0.8274 -1.40841,-1.2297 -0.45795,-0.3828 -0.92407,-0.7544 -1.39136,-1.1237 -0.30213,-0.2388 -0.15167,-0.1193 -0.45172,-0.3587 0,0 5.92702,-1.4959 5.92702,-1.4959 l 0,0 c 0.29786,0.2388 0.14841,0.1194 0.44834,0.3594 0.46584,0.3767 0.93165,0.7536 1.38568,1.1471 0.476,0.4107 0.94776,0.8274 1.40848,1.2582 0.46725,0.4398 0.93063,0.8845 1.38037,1.3454 0.45108,0.4644 0.89306,0.9391 1.32664,1.4227 0.42875,0.4802 0.85667,0.9615 1.26987,1.4576 0.4055,0.4907 0.80806,0.9843 1.19876,1.4891 0.37705,0.4923 0.74544,0.9924 1.10432,1.5009 0.34781,0.4909 0.69043,0.9861 1.02095,1.491 0.31449,0.4806 0.62738,0.9625 0.92841,1.4531 0.28932,0.4707 0.57461,0.9444 0.84883,1.4258 0.25874,0.454 0.51391,0.9105 0.76392,1.3705 0.22546,0.4111 0.45139,0.8219 0.67295,1.2357 0.15496,0.2894 0.30986,0.5791 0.48052,0.8579 0.0952,0.1657 0.18641,0.3337 0.27621,0.5029 0.0455,0.083 0.0893,0.1677 0.13143,0.2532 0,0 -6.15063,1.2138 -6.15063,1.2138 z"
       id="path4169"
       style="fill:#d40000;stroke:none" />
    <g
       id="g4175"
       transform="translate(-63.928572,-63.214286)"
       style="fill:#000000">
      <path
         style="fill:#000000;stroke:none"
         id="path4171"
         d="m 14.422103,1052.3622 c 0.0084,-0.099 0.04253,-0.1905 0.06083,-0.2869 0.02988,-0.1143 0.06815,-0.2247 0.09502,-0.341 0.04188,-0.1442 0.08406,-0.2887 0.132742,-0.4294 0.05585,-0.1779 0.119915,-0.3511 0.174515,-0.5298 0.0651,-0.2102 0.130313,-0.4206 0.192848,-0.6322 0.07727,-0.2329 0.151039,-0.4675 0.230761,-0.6992 0.0893,-0.2561 0.187576,-0.5071 0.280624,-0.7609 0.108007,-0.298 0.224649,-0.5907 0.343945,-0.8818 0.131131,-0.3199 0.268289,-0.6359 0.403378,-0.9531 0.141936,-0.3499 0.296054,-0.6914 0.448624,-1.034 0.170994,-0.3748 0.329236,-0.7585 0.495315,-1.1368 0.188843,-0.4221 0.373049,-0.8475 0.556682,-1.2733 0.207371,-0.4828 0.420808,-0.9613 0.629513,-1.443 0.227867,-0.5197 0.45534,-1.0395 0.680426,-1.5609 0.269246,-0.6165 0.543494,-1.2295 0.818554,-1.8418 0.314517,-0.7008 0.637314,-1.3955 0.964315,-2.0871 0.38484,-0.8144 0.77525,-1.6247 1.165677,-2.435 0.443467,-0.9227 0.912729,-1.8248 1.382815,-2.7262 0.522288,-1.0115 1.066999,-2.0041 1.616381,-2.9925 0.624136,-1.1197 1.272221,-2.2179 1.922915,-3.3134 0.724057,-1.2069 1.444029,-2.4176 2.165066,-3.6272 0.767437,-1.293 1.571213,-2.5506 2.388297,-3.7943 0.858343,-1.3047 1.759546,-2.5628 2.669272,-3.8107 0.94831,-1.2929 1.916232,-2.5628 2.890726,-3.8245 0.967368,-1.2521 1.950883,-2.4844 2.932356,-3.7191 0.157255,-0.1976 0.314508,-0.3955 0.47176,-0.5933 l 7.464538,-1.2726 0,0 c -0.15923,0.1979 -0.318459,0.3956 -0.477689,0.5935 -0.987089,1.2308 -1.978534,2.4564 -2.950784,3.7059 -0.968103,1.2556 -1.936891,2.5105 -2.879541,3.7965 -0.90304,1.2328 -1.799915,2.4736 -2.655015,3.7597 -0.81207,1.226 -1.610823,2.4661 -2.371494,3.7434 -0.715291,1.2022 -1.419432,2.415 -2.134111,3.6177 -0.636585,1.084 -1.268732,2.1723 -1.884543,3.2752 -0.536826,0.978 -1.06873,1.9602 -1.58447,2.9561 -0.456387,0.8926 -0.917784,1.7814 -1.355497,2.689 -0.383032,0.7994 -0.754583,1.6077 -1.129461,2.4134 -0.314067,0.687 -0.632143,1.3713 -0.937111,2.065 -0.26814,0.6022 -0.532556,1.2073 -0.791753,1.816 -0.219837,0.5228 -0.43525,1.0489 -0.665837,1.5649 -0.206546,0.4764 -0.406219,0.9578 -0.6161,1.4321 -0.179036,0.4274 -0.35368,0.8577 -0.539874,1.2803 -0.163407,0.3778 -0.326396,0.7557 -0.48334,1.1381 -0.146452,0.3374 -0.29654,0.672 -0.442099,1.0101 -0.129316,0.3172 -0.2643,0.6304 -0.395462,0.9466 -0.115299,0.2784 -0.234769,0.5551 -0.339223,0.8402 -0.09344,0.2474 -0.181539,0.4982 -0.272778,0.7469 -0.08204,0.2174 -0.161399,0.4362 -0.229247,0.6613 -0.07153,0.1992 -0.129683,0.4056 -0.189958,0.6103 -0.05496,0.18 -0.09702,0.3664 -0.16255,0.541 -0.03914,0.1344 -0.08453,0.2662 -0.125684,0.3993 -0.03925,0.1034 -0.05431,0.2153 -0.09108,0.3189 -0.02973,0.069 -0.300902,1.1231 -0.332372,1.1912 z"
         inkscape:connector-curvature="0"
         sodipodi:nodetypes="cccccccccccccccccccccccccccccccccccccccccccccccccccccccc" />
      <path
         style="fill:#000000;stroke:none"
         id="path4173"
         d="m 14.422081,1052.3622 c -0.03174,-0.078 -0.06734,-0.1543 -0.101351,-0.2307 -0.07573,-0.162 -0.157948,-0.3203 -0.240808,-0.4781 -0.148088,-0.295 -0.291741,-0.5926 -0.435879,-0.89 -0.203598,-0.4142 -0.421496,-0.8197 -0.637503,-1.2263 -0.245103,-0.4561 -0.496389,-0.908 -0.751557,-1.3575 -0.270264,-0.4736 -0.549945,-0.941 -0.835918,-1.4038 -0.299375,-0.4836 -0.607122,-0.9613 -0.917971,-1.4363 -0.324281,-0.4992 -0.6664979,-0.9839 -1.0086024,-1.4688 -0.3530453,-0.5019 -0.7197388,-0.9918 -1.0943573,-1.4749 -0.3864958,-0.4983 -0.7874369,-0.9831 -1.1893032,-1.4668 -0.4135712,-0.4853 -0.8373942,-0.9601 -1.262651,-1.4331 -0.4284455,-0.477 -0.8690285,-0.9404 -1.3202674,-1.3919 -0.4484189,-0.4513 -0.9083689,-0.8885 -1.3744249,-1.3181 -0.4618872,-0.4202 -0.9332696,-0.8274 -1.4084035,-1.2297 -0.4579546,-0.3828 -0.92406869,-0.7544 -1.39135898,-1.1237 C 0.14958986,1034.1937 0.30004971,1034.3132 0,1034.0738 c 0,0 5.9270253,-1.4959 5.9270253,-1.4959 l 0,0 c 0.2978594,0.2388 0.1484101,0.1194 0.4483405,0.3594 0.4658363,0.3767 0.9316461,0.7536 1.3856754,1.1471 0.475996,0.4107 0.9477651,0.8274 1.4084784,1.2582 0.4672485,0.4398 0.9306324,0.8845 1.3803704,1.3454 0.451086,0.4644 0.893063,0.9391 1.32664,1.4227 0.42875,0.4802 0.856671,0.9615 1.269868,1.4576 0.405508,0.4907 0.808067,0.9843 1.198764,1.4891 0.377052,0.4923 0.745442,0.9924 1.104317,1.5009 0.347809,0.4909 0.690435,0.9861 1.020957,1.491 0.31449,0.4806 0.627375,0.9625 0.92841,1.4531 0.28932,0.4707 0.574603,0.9444 0.848824,1.4258 0.258741,0.454 0.513915,0.9105 0.763922,1.3705 0.225462,0.4111 0.451392,0.8219 0.672947,1.2357 0.154967,0.2894 0.309868,0.5791 0.480519,0.8579 0.09521,0.1657 0.186412,0.3337 0.276211,0.5029 0.04553,0.083 0.0893,0.1677 0.13143,0.2532 0,0 -6.150622,1.2138 -6.150622,1.2138 z"
         inkscape:connector-curvature="0" />
    </g>
    <path
       inkscape:connector-curvature="0"
       id="path4182"
       d="m 22.998724,943.75305 c -2.489583,0.4271 -4.979167,0.8542 -7.46875,1.2813 -4.834846,5.9946 -9.5101695,12.1561 -13.2290385,18.9209 -4.041163,6.4872 -7.183313,13.47 -10.177211,20.4853 -2.9952835,-4.7452 -6.7409295,-9.032 -11.1875005,-12.4687 -1.979166,0.5 -3.958333,1 -5.9375,1.5 6.30543,4.7117 11.116015,11.1895 14.4375,18.2812 2.5104175,-0.2917 5.0208335,-0.5833 7.5312505,-0.875 1.350161,-5.3228 3.95038198,-10.2089 6.004089,-15.2763 3.302543,-7.2976 7.2800305,-14.289 11.7072045,-20.9601 2.609149,-3.7522 5.455899,-7.33 8.319956,-10.8886 z"
       style="fill:#666666;stroke:none" />
  </g>
</svg>
