<?xml version="1.0" encoding="UTF-8" standalone="no"?>
<!-- Created with Inkscape (http://www.inkscape.org/) -->

<svg
   xmlns:dc="http://purl.org/dc/elements/1.1/"
   xmlns:cc="http://creativecommons.org/ns#"
   xmlns:rdf="http://www.w3.org/1999/02/22-rdf-syntax-ns#"
   xmlns:svg="http://www.w3.org/2000/svg"
   xmlns="http://www.w3.org/2000/svg"
   version="1.1"
   width="48"
   height="48"
   id="svg2">
  <defs
     id="defs4" />
  <metadata
     id="metadata7">
    <rdf:RDF>
      <cc:Work
         rdf:about="">
        <dc:format>image/svg+xml</dc:format>
        <dc:type
           rdf:resource="http://purl.org/dc/dcmitype/StillImage" />
        <dc:title></dc:title>
      </cc:Work>
    </rdf:RDF>
  </metadata>
  <g
     transform="translate(0,-1004.3622)"
     id="layer1">
    <path
       d="m 48,1004.3622 c -2.489583,0.4271 -4.979167,0.8542 -7.46875,1.2813 -4.834846,5.9946 -9.51017,12.1561 -13.229039,18.9209 -4.041163,6.4872 -7.183313,13.47 -10.177211,20.4853 -2.995283,-4.7452 -6.740929,-9.032 -11.1875,-12.4687 -1.9791667,0.5 -3.9583333,1 -5.9375,1.5 6.3054298,4.7117 11.116015,11.1895 14.4375,18.2812 2.510417,-0.2917 5.020833,-0.5833 7.53125,-0.875 1.350161,-5.3228 3.950382,-10.2089 6.004089,-15.2763 3.302543,-7.2976 7.280031,-14.289 11.707205,-20.9601 2.609149,-3.7522 5.455899,-7.33 8.319956,-10.8886 z"
       id="path4140"
       style="fill:#ececec;fill-opacity:1;stroke:none" />
  </g>
</svg>
